<svg width="426" height="150" viewBox="0 0 426 150" fill="none" xmlns="http://www.w3.org/2000/svg">
<path d="M14.3749 59.9921C23.5041 55.0924 33.6208 52.3141 43.9721 51.864L44.1314 51.8475L44.2909 51.8523C52.234 51.9765 60.9668 56.1882 70.86 64.6748V11.5416C70.8723 8.80168 69.8651 6.15516 68.0342 4.11662C66.2035 2.07809 63.6802 0.793197 60.9546 0.5118C41.3349 -1.55066 22.327 2.71496 11.3955 11.6001C8.17439 14.1427 5.50488 17.3148 3.54977 20.9229C1.59464 24.5309 0.394881 28.4995 0.0236326 32.5863C0.0142576 32.8066 0.00488281 33.0245 0.00488281 33.2425V33.8262C0.126758 44.1225 6.92365 53.5655 14.3749 59.9921Z" fill="black"/>
<path d="M86.377 60.081C92.429 62.4167 98.1762 65.4757 103.494 69.1915C104.454 68.5844 105.488 68.0758 106.391 67.3915C110.075 64.6661 113.112 61.1605 115.284 57.1249C117.456 53.0895 118.71 48.624 118.955 44.0477V43.7109C118.824 27.3749 102.12 14.0057 87.8559 7.52333C86.9021 7.089 85.8665 6.86359 84.8183 6.86235C83.4555 6.85916 82.1206 7.2499 80.9746 7.98741C80.0062 8.60159 79.2108 9.45288 78.6636 10.4606C78.1164 11.4686 77.8357 12.5993 77.8481 13.746V47.2383C77.8265 49.9854 78.6271 52.6764 80.1469 54.965C81.6668 57.2536 83.8365 59.0353 86.377 60.081Z" fill="black"/>
<path d="M29.1659 90.4707V88.8138C29.1624 85.9589 28.4842 83.1455 27.1869 80.6028C25.8896 78.0599 24.0098 75.8598 21.7007 74.1813L13.8328 68.4861C8.44484 64.605 3.76551 59.8248 0 54.3554V89.9993H0.0562493L0.0328124 93.554C-0.250782 111.572 16.5188 123.29 23.7401 127.495C24.2769 127.809 24.8856 127.977 25.507 127.984C26.1283 127.993 26.7411 127.839 27.2854 127.54C27.8296 127.24 28.2868 126.804 28.6123 126.274C28.9378 125.745 29.1205 125.14 29.1425 124.518L29.1659 90.4707Z" fill="black"/>
<path d="M110.614 72.9673C92.804 86.4462 64.8028 86.5611 46.24 82.5744C45.6338 82.4441 45.0155 82.3782 44.3955 82.3775C42.4792 82.3722 40.6193 83.025 39.1267 84.2268C38.19 84.9731 37.4359 85.9233 36.9213 87.0049C36.4067 88.0873 36.1455 89.271 36.1572 90.4689L36.1338 150C36.3025 149.876 36.4689 149.757 36.6401 149.63C44.5784 143.837 52.7371 137.775 61.5871 138.593C81.3406 139.807 99.0872 135.087 109.107 125.993C112.185 123.23 114.657 119.858 116.365 116.089C118.073 112.321 118.981 108.241 119.031 104.105L119.028 64.4101C116.675 67.6734 113.838 70.559 110.614 72.9673Z" fill="black"/>
<path d="M200.639 119.3C228.107 119.3 245.023 100.096 245.023 71.6087C245.023 43.1217 228.107 23.9184 200.639 23.9184C173.169 23.9184 156.255 43.1217 156.255 71.6087C156.255 100.096 173.169 119.3 200.639 119.3ZM174.568 71.6087C174.568 52.5325 183.215 39.9423 200.639 40.1968C218.062 40.4511 226.709 52.5325 226.709 71.6087C226.709 90.6851 218.062 103.275 200.639 103.02C183.215 102.767 174.568 90.6851 174.568 71.6087Z" fill="black"/>
<path d="M299.429 84.962V117.391H316.98V78.8577C316.98 73.1348 316.98 46.6826 290.146 46.6826C280.29 46.6826 272.849 50.2434 267.889 55.7755V48.7174H252.501V117.391H270.051V82.5456C270.051 65.5045 278.7 62.9609 284.677 62.9609C299.429 62.9609 299.429 78.7305 299.429 84.962Z" fill="black"/>
<path d="M329.664 39.1793H346.959V23.9184H329.664V39.1793ZM329.664 117.391H346.959V48.7174H329.664V117.391Z" fill="black"/>
<path d="M407.735 84.962V117.391H425.285V78.8577C425.285 73.1348 425.285 46.6826 398.452 46.6826C388.596 46.6826 381.157 50.2434 376.197 55.7755V48.7174H360.809V117.391H378.359V82.5456C378.359 65.5045 387.006 62.9609 392.983 62.9609C407.735 62.9609 407.735 78.7305 407.735 84.962Z" fill="black"/>
</svg>
